<svg width="1983" height="767" viewBox="0 0 1983 767" fill="none" xmlns="http://www.w3.org/2000/svg">
<path fill-rule="evenodd" clip-rule="evenodd" d="M1977.46 319.68C1962.34 219.657 1876.18 112.074 1588.5 145.902C1186.49 193.174 890.814 193.047 846.904 145.902C756.077 69.7827 520.757 -59.7383 306.088 31.1306C91.418 122 13.0003 167.5 13.0002 364.351L13.0003 395.113C-31.6019 510.343 29.565 808.386 425.313 761.85C641.482 736.431 777.948 705.748 898.009 678.754C1001.23 655.547 1092.32 635.066 1211.5 623C1352.52 608.724 1414.15 596.32 1499.45 579.152C1560.55 566.857 1633.78 552.119 1757 532.5C1922.4 506.165 1926.18 500.9 1944.28 475.647C1951.35 465.79 1960.6 452.888 1982.5 434.5V319.5L1977.46 319.68Z" fill="#233588"/>
</svg>
